<svg xmlns="http://www.w3.org/2000/svg" shape-rendering="geometricPrecision" overflow="visible" width="219" height="47" viewBox="0 0 219 47" fill="none"><g><path d="M5.46977 17.68C6.05977 17.06 6.74977 16.56 7.51977 16.2C8.27977 15.85 9.10977 15.67 9.97976 15.67C10.9498 15.67 11.7298 15.8 12.2898 16.04C12.8698 16.29 13.4498 16.66 14.0198 17.16C14.4298 17.48 14.8598 17.62 15.3298 17.58C15.7698 17.55 16.1598 17.38 16.4698 17.09C16.8098 16.78 16.9798 16.36 16.9798 15.9C16.9798 15.71 16.9598 15.54 16.9298 15.39C16.8898 15.21 16.8098 15.04 16.6998 14.87C16.5898 14.71 16.4398 14.57 16.2798 14.45C15.3198 13.66 14.3498 13.09 13.3898 12.75C12.4298 12.4 11.2798 12.23 9.96977 12.23C8.55977 12.23 7.23977 12.5 6.03977 13.03C4.83977 13.56 3.76977 14.3 2.87977 15.24C1.97977 16.17 1.26977 17.28 0.769766 18.52C0.269766 19.76 0.00976562 21.12 0.00976562 22.55C0.00976562 23.98 0.269766 25.36 0.769766 26.61C1.27977 27.86 1.97977 28.97 2.88977 29.9C3.78977 30.83 4.85977 31.58 6.06977 32.1C7.27977 32.62 8.59976 32.89 9.98977 32.89C11.1498 32.89 12.2798 32.7 13.3398 32.32C14.3898 31.94 15.3998 31.38 16.3198 30.65C16.3398 30.64 16.3498 30.62 16.3698 30.61C16.5498 30.43 16.6898 30.22 16.7898 30C16.8898 29.78 16.9298 29.54 16.9298 29.3C16.9298 28.79 16.7798 28.37 16.4798 28.06C16.1898 27.75 15.8198 27.58 15.3898 27.54C14.9698 27.51 14.5398 27.64 14.1298 27.93C13.4898 28.4 12.8198 28.77 12.1398 29.04C10.6998 29.59 8.95977 29.55 7.53977 28.91C6.76977 28.56 6.07977 28.07 5.48977 27.45C4.89977 26.83 4.43977 26.09 4.10977 25.26C3.77977 24.43 3.61977 23.53 3.61977 22.57C3.61977 21.61 3.77977 20.73 4.10977 19.9C4.42977 19.07 4.89977 18.33 5.47977 17.7L5.46977 17.68Z" fill="black"/><path d="M41.5302 15.13C40.6202 14.21 39.5202 13.49 38.2802 12.98C37.0402 12.47 35.6502 12.22 34.1602 12.22C32.6702 12.22 31.2702 12.48 30.0202 12.98C28.7702 13.49 27.6702 14.21 26.7702 15.13C25.8702 16.05 25.1602 17.15 24.6602 18.4C24.1602 19.65 23.9102 21.04 23.9102 22.53C23.9102 24.02 24.1602 25.42 24.6602 26.67C25.1602 27.93 25.8702 29.03 26.7702 29.95C27.6702 30.87 28.7702 31.6 30.0202 32.1C31.2702 32.61 32.6602 32.86 34.1602 32.86C35.6602 32.86 37.0402 32.61 38.2902 32.1C39.5402 31.59 40.6302 30.87 41.5402 29.95C42.4502 29.03 43.1702 27.92 43.6602 26.67C44.1602 25.42 44.4102 24.02 44.4102 22.53C44.4102 21.04 44.1602 19.64 43.6602 18.4C43.1602 17.14 42.4502 16.04 41.5302 15.12V15.13ZM34.1502 29.43C33.1802 29.43 32.2802 29.25 31.4702 28.91C30.6602 28.56 29.9602 28.08 29.3702 27.46C28.7802 26.85 28.3202 26.11 28.0002 25.28C27.6702 24.45 27.5002 23.53 27.5002 22.55C27.5002 21.57 27.6702 20.65 28.0002 19.82C28.3302 18.99 28.7902 18.25 29.3702 17.64C29.9502 17.03 30.6602 16.55 31.4602 16.21C32.2702 15.87 33.1702 15.7 34.1402 15.7C35.1102 15.7 36.0102 15.87 36.8202 16.21C37.6302 16.55 38.3402 17.04 38.9302 17.64C39.5202 18.25 39.9902 18.99 40.3002 19.82C40.6202 20.66 40.7802 21.58 40.7802 22.56C40.7802 23.54 40.6202 24.46 40.3002 25.3C39.9802 26.13 39.5202 26.86 38.9302 27.48C38.3402 28.09 37.6302 28.58 36.8202 28.93C36.0202 29.27 35.1102 29.45 34.1402 29.45L34.1502 29.43Z" fill="black"/><path d="M67.72 12.46C67.21 12.46 66.77 12.63 66.41 12.98C66.06 13.32 65.87 13.78 65.87 14.31V25.88L56.28 13.13C55.91 12.69 55.42 12.46 54.86 12.46C54.35 12.46 53.9 12.64 53.56 12.98C53.21 13.33 53.04 13.78 53.04 14.3V30.78C53.04 31.29 53.21 31.73 53.55 32.09C53.89 32.44 54.35 32.63 54.86 32.63C55.37 32.63 55.85 32.44 56.19 32.09C56.53 31.74 56.71 31.29 56.71 30.78V19.24L66.28 31.96C66.46 32.19 66.7 32.36 66.98 32.47C67.24 32.57 67.48 32.62 67.72 32.62C68.25 32.62 68.71 32.43 69.05 32.07C69.38 31.72 69.55 31.28 69.55 30.77V14.31C69.55 13.78 69.38 13.34 69.04 12.99C68.71 12.64 68.25 12.46 67.73 12.46H67.72Z" fill="black"/><path d="M134.63 12.46C134.12 12.46 133.68 12.63 133.32 12.98C132.97 13.32 132.78 13.78 132.78 14.31V25.88L123.2 13.13C122.83 12.69 122.34 12.46 121.78 12.46C121.27 12.46 120.82 12.64 120.48 12.98C120.13 13.33 119.96 13.78 119.96 14.3V30.78C119.96 31.29 120.13 31.73 120.47 32.09C120.81 32.45 121.27 32.63 121.78 32.63C122.29 32.63 122.77 32.44 123.11 32.09C123.45 31.74 123.63 31.29 123.63 30.78V19.24L133.2 31.96C133.38 32.19 133.62 32.36 133.9 32.47C134.16 32.57 134.4 32.62 134.64 32.62C135.17 32.62 135.63 32.43 135.97 32.07C136.3 31.72 136.47 31.28 136.47 30.77V14.31C136.47 13.78 136.3 13.34 135.96 12.99C135.63 12.64 135.17 12.46 134.65 12.46H134.63Z" fill="black"/><path d="M159.2 12.46H146.18C145.69 12.46 145.25 12.63 144.93 12.96C144.6 13.29 144.43 13.72 144.43 14.21C144.43 14.7 144.6 15.13 144.93 15.46C145.26 15.79 145.69 15.96 146.18 15.96H150.85V30.78C150.85 31.29 151.04 31.74 151.39 32.09C151.74 32.44 152.19 32.63 152.71 32.63C153.23 32.63 153.67 32.44 154.02 32.09C154.37 31.74 154.56 31.29 154.56 30.78V15.96H159.21C159.7 15.96 160.14 15.79 160.46 15.46C160.78 15.13 160.96 14.7 160.96 14.21C160.96 13.72 160.79 13.29 160.46 12.96C160.13 12.64 159.7 12.46 159.2 12.46Z" fill="black"/><path d="M178.95 24.35C179.84 23.83 180.56 23.14 181.08 22.28C181.66 21.33 181.96 20.24 181.96 19.03C181.96 17.75 181.67 16.6 181.09 15.62C180.51 14.64 179.69 13.86 178.66 13.3C177.64 12.75 176.45 12.46 175.15 12.46H170.77C170.26 12.46 169.82 12.63 169.46 12.98C169.11 13.32 168.92 13.78 168.92 14.31V30.79C168.92 31.3 169.11 31.75 169.46 32.1C169.81 32.45 170.26 32.64 170.77 32.64C171.28 32.64 171.76 32.45 172.1 32.1C172.44 31.75 172.61 31.3 172.61 30.79V25.31H175.27L179.27 31.75C179.46 32.05 179.69 32.28 179.97 32.42C180.24 32.56 180.54 32.63 180.86 32.63C181.8 32.63 182.26 32.12 182.48 31.69C182.69 31.28 182.84 30.61 182.33 29.79L178.95 24.34V24.35ZM177.96 20.46C177.69 20.88 177.33 21.21 176.85 21.45C176.37 21.69 175.79 21.81 175.14 21.81H172.61V15.97H175.14C175.78 15.97 176.35 16.1 176.84 16.36C177.31 16.62 177.68 16.97 177.95 17.43C178.22 17.9 178.36 18.42 178.36 19.03C178.36 19.57 178.23 20.03 177.96 20.45V20.46Z" fill="black"/><path d="M191.5 12.46C190.99 12.46 190.55 12.63 190.19 12.98C189.84 13.32 189.65 13.78 189.65 14.31V30.79C189.65 31.3 189.84 31.75 190.19 32.1C190.54 32.45 190.99 32.64 191.5 32.64C192.01 32.64 192.49 32.45 192.83 32.1C193.17 31.75 193.34 31.3 193.34 30.79V14.31C193.34 13.78 193.16 13.33 192.82 12.98C192.48 12.64 192.02 12.46 191.5 12.46Z" fill="black"/><path d="M217.39 27.52C216.97 27.49 216.54 27.62 216.13 27.91C215.49 28.38 214.82 28.75 214.14 29.02C212.7 29.57 210.96 29.53 209.54 28.89C208.77 28.54 208.08 28.05 207.5 27.43C206.91 26.81 206.45 26.07 206.12 25.24C205.79 24.41 205.63 23.51 205.63 22.55C205.63 21.59 205.79 20.71 206.12 19.88C206.45 19.05 206.91 18.32 207.5 17.69C208.09 17.06 208.78 16.57 209.54 16.21C210.3 15.86 211.13 15.68 212 15.68C212.97 15.68 213.75 15.81 214.31 16.05C214.89 16.3 215.47 16.67 216.04 17.17C216.45 17.49 216.89 17.63 217.35 17.59C217.79 17.56 218.18 17.39 218.49 17.1C218.83 16.79 219 16.37 219 15.91C219 15.72 218.98 15.55 218.95 15.4C218.91 15.22 218.83 15.05 218.72 14.88C218.61 14.72 218.46 14.58 218.3 14.46C217.34 13.67 216.37 13.1 215.41 12.76C214.45 12.41 213.3 12.24 211.99 12.24C210.59 12.24 209.26 12.51 208.06 13.04C206.86 13.57 205.79 14.32 204.9 15.25C204 16.18 203.29 17.29 202.79 18.53C202.28 19.77 202.03 21.13 202.03 22.56C202.03 23.99 202.29 25.37 202.79 26.62C203.3 27.87 204 28.98 204.91 29.91C205.81 30.84 206.88 31.59 208.09 32.11C209.3 32.63 210.62 32.9 212.01 32.9C213.17 32.9 214.3 32.71 215.36 32.33C216.42 31.95 217.42 31.39 218.34 30.66C218.36 30.65 218.38 30.63 218.39 30.62C218.57 30.44 218.71 30.23 218.81 30.01C218.91 29.79 218.95 29.55 218.95 29.31C218.95 28.8 218.8 28.38 218.5 28.07C218.21 27.76 217.84 27.59 217.41 27.55L217.39 27.52Z" fill="black"/><path d="M100.28 46.21C94.16 46.21 88.81 44.06 84.36 39.82C79.77 35.44 77.37 29.99 77.23 23.61C77.08 17.27 79.23 11.73 83.62 7.14C87.99 2.55 93.45 0.149996 99.82 -3.98187e-06C105.18 -0.120004 109.98 1.4 114.1 4.51C114.44 4.77 114.78 5.04 115.12 5.32C115.54 5.67 115.59 6.29 115.24 6.7C114.89 7.11 114.27 7.17 113.86 6.82C113.55 6.56 113.24 6.31 112.92 6.07C109.17 3.23 104.78 1.85 99.87 1.96C94.03 2.09 89.04 4.29 85.03 8.49C81.02 12.69 79.05 17.76 79.18 23.56C79.31 29.39 81.51 34.39 85.71 38.4C89.91 42.41 95 44.38 100.84 44.24C105.75 44.13 110.08 42.54 113.7 39.52C114.12 39.17 114.73 39.23 115.08 39.65C115.43 40.06 115.37 40.68 114.96 41.03C110.99 44.34 106.26 46.07 100.89 46.2C100.7 46.2 100.49 46.2 100.29 46.2L100.28 46.21Z" fill="black"/><path d="M100.15 34.1C97.5301 34.1 95.1701 33.22 93.1401 31.48C90.8701 29.54 89.5901 27.02 89.3701 24.03C89.1401 21.05 90.0101 18.38 91.9601 16.11C93.9101 13.84 96.4201 12.57 99.4101 12.34C101.93 12.15 104.24 12.74 106.25 14.1C106.42 14.21 106.58 14.33 106.75 14.45C107.23 14.82 107.33 15.51 106.97 15.99C106.6 16.47 105.91 16.57 105.43 16.21C105.3 16.11 105.16 16.01 105.03 15.92C103.41 14.83 101.63 14.37 99.5901 14.53C97.1601 14.72 95.2101 15.7 93.6401 17.54C92.0701 19.38 91.3901 21.45 91.5801 23.86C91.7701 26.29 92.7501 28.23 94.5901 29.81C96.4301 31.38 98.5001 32.06 100.93 31.87C102.97 31.71 104.67 30.99 106.1 29.65C106.54 29.24 107.24 29.26 107.66 29.71C108.08 30.16 108.05 30.85 107.6 31.27C105.81 32.93 103.62 33.88 101.1 34.07C100.79 34.09 100.48 34.1 100.17 34.1H100.15Z" fill="black"/><path d="M113.69 9.89001C113.69 9.89001 113.76 9.78001 113.74 9.71001C113.73 9.65001 113.68 9.59001 113.62 9.57001C109.55 7.87001 105.76 7.34001 102.35 7.97001C100.58 8.38001 98.86 9.07001 97.21 10.01C96.1 10.71 95.06 11.58 94.09 12.59C94.02 12.66 94.02 12.77 94.08 12.85C94.14 12.93 94.25 12.95 94.34 12.9C96.08 11.87 98.06 11.35 100.23 11.35C102.89 11.35 105.28 12.15 107.3 13.73C107.68 14.02 108.13 14.17 108.58 14.17C109.11 14.17 109.63 13.97 110.02 13.58L113.7 9.91001L113.69 9.89001Z" fill="#640B0F"/><path d="M109.28 31.9C109.28 31.9 109.17 31.84 109.11 31.84C109.04 31.85 108.99 31.89 108.97 31.95C107.34 35.57 104.07 40.37 97.7802 42.69C97.6902 42.72 97.6402 42.81 97.6502 42.9C97.6602 42.99 97.7302 43.06 97.8202 43.07C98.6202 43.16 99.4202 43.2 100.23 43.2C105.22 43.2 109.62 41.58 113.29 38.39C113.64 38.09 113.84 37.66 113.86 37.21C113.88 36.75 113.71 36.32 113.39 36L109.29 31.9H109.28Z" fill="#BE1E2D"/><path d="M114.02 8.46999C110.19 4.82999 105.56 2.98999 100.23 2.98999C94.9001 2.98999 89.8801 4.96999 85.9801 8.86999C82.0801 12.77 80.1001 17.55 80.1001 23.07C80.1001 28.59 82.0801 33.41 85.9801 37.32C88.6601 40 91.7701 41.78 95.2501 42.62C95.2601 42.62 95.2801 42.62 95.3001 42.62C95.3201 42.62 95.3301 42.62 95.3501 42.62C102.32 40.91 105.99 36.18 107.84 32.53C107.88 32.45 107.86 32.35 107.79 32.29C107.72 32.23 107.62 32.23 107.54 32.29C105.46 33.99 103.01 34.85 100.24 34.85C97.0001 34.85 94.2001 33.69 91.9101 31.41C89.6201 29.12 88.4601 26.32 88.4601 23.09C88.4601 21.3 88.8201 19.63 89.5501 18.1C89.5501 18.08 89.5601 18.07 89.5501 18.07C89.6601 17.78 92.3701 10.96 99.1701 8.11999C103.45 6.33999 108.37 6.56999 113.81 8.80999C113.9 8.83999 114 8.80999 114.05 8.73999C114.09 8.65999 114.08 8.55999 114.01 8.48999L114.02 8.46999Z" fill="url(#paint0_linear_4632_487)"/></g><defs><linearGradient id="paint0_linear_4632_487" x1="98.2001" y1="6.24999" x2="93.0001" y2="47.85" gradientUnits="userSpaceOnUse"><stop stop-color="#C3212C"/><stop offset="1" stop-color="#640B0F"/></linearGradient></defs></svg>
